PathFileType	4	(X/Y/Z)	./resultDataOpenSim/trcMotMarkerGrf/sub09/qtm-12-03.trc
DataRate	CameraRate	NumFrames	NumMarkers	Units	OrigDataRate	OrigDataStartFrame	OrigNumFrames
250.000000	250.000000	13	24	m	250.000000	1	466
Frame#	Time	L.Toe.Tip			R.Toe.Tip			L.Ankle.Lat			R.Ankle.Lat			L.Ankle.Med			R.Ankle.Med			L.Heel			R.Heel			L.Knee.Lat			R.Knee.Lat			L.Knee.Med			R.Knee.Med			L.Thigh.Upper			R.Thigh.Upper			L.ASIS			R.ASIS			V.Sacral			L.Acromium			R.Acromium			C7			L.Elbow			R.Elbow			L.Wrist.Lat			R.Wrist.Lat
		X1	Y1	Z1	X2	Y2	Z2	X3	Y3	Z3	X4	Y4	Z4	X5	Y5	Z5	X6	Y6	Z6	X7	Y7	Z7	X8	Y8	Z8	X9	Y9	Z9	X10	Y10	Z10	X11	Y11	Z11	X12	Y12	Z12	X13	Y13	Z13	X14	Y14	Z14	X15	Y15	Z15	X16	Y16	Z16	X17	Y17	Z17	X18	Y18	Z18	X19	Y19	Z19	X20	Y20	Z20	X21	Y21	Z21	X22	Y22	Z22	X23	Y23	Z23	X24	Y24	Z24

1	0	-1.4604452	0.036670295	-0.049040621	-0.91985902	0.081469734	0.079463868	-1.6094751	0.080010462	-0.073367145	-1.0705932	0.07175778	0.10764549	-1.5805154	0.096068624	0.019289965	-1.0607477	0.11027471	0.017751116	NaN	NaN	NaN	-1.1248299	0.036053518	0.051762619	-1.4742108	0.47442433	-0.13549809	-1.1147507	0.53023936	0.15387012	-1.4697135	0.47529959	-0.0091587105	-1.1154714	0.51220672	0.028657725	-1.3562052	0.88096425	-0.18116413	-1.325036	0.87904142	0.18969795	-1.2493218	0.95222961	-0.1271444	-1.2432531	0.95959587	0.1124827	-1.4091215	1.0225665	0.00025146273	-1.1945322	1.4021311	-0.16034865	-1.2304815	1.4202585	0.1636439	-1.2699351	1.4645549	-0.0026427796	-1.3446792	1.0655485	-0.25005802	-1.4192003	1.1151477	0.25538015	-1.148576	0.87656351	-0.23564226	-1.3268574	0.8632154	0.30472053
2	0.004	-1.4604492	0.036573974	-0.049093904	-0.90030685	0.084434737	0.079606892	-1.6094593	0.080910394	-0.072747076	-1.0511523	0.071389278	0.10776741	-1.57973	0.096787652	0.019678685	-1.0418199	0.11034173	0.0180548	NaN	NaN	NaN	-1.1042315	0.03464746	0.052124028	-1.4719811	0.47497427	-0.13532317	-1.1090831	0.52819132	0.15395382	-1.4673221	0.47555203	-0.0090755601	-1.1077585	0.51045588	0.028576845	-1.350093	0.87968929	-0.18089481	-1.3183597	0.87706451	0.18968178	-1.2426584	0.95049026	-0.12741509	-1.2363613	0.9578026	0.11242631	-1.4020443	1.0205738	0.00068585849	-1.1882867	1.4005913	-0.16020338	-1.2245916	1.4185305	0.16381469	-1.2641633	1.4629221	-0.0022932969	-1.3379608	1.0637005	-0.25039015	-1.4130138	1.1131917	0.25539455	-1.140561	0.87606246	-0.23527863	-1.3204175	0.86144111	0.3049249
3	0.008	-1.4604568	0.036488261	-0.049149343	-0.88106898	0.087625866	0.079779293	-1.6094076	0.081782678	-0.072170112	-1.0319365	0.071185275	0.10792786	-1.5789314	0.097491368	0.020032286	-1.023198	0.11051989	0.018341908	NaN	NaN	NaN	-1.0838174	0.033359401	0.05268953	-1.4696025	0.4754322	-0.13512386	-1.1029166	0.52612026	0.15414315	-1.4647787	0.47572304	-0.0089676966	-1.0998895	0.50868307	0.028474028	-1.3439779	0.8783789	-0.1807181	-1.3116212	0.87501179	0.18966585	-1.2360387	0.94872648	-0.12765038	-1.2293826	0.95597872	0.11236108	-1.3952062	1.0185152	0.00081117347	-1.1820863	1.3990234	-0.1600588	-1.2186991	1.4167872	0.16397942	-1.2583641	1.4612705	-0.0019459238	-1.3312508	1.0618171	-0.25072822	-1.4068295	1.111205	0.25538145	-1.1325512	0.87552335	-0.23491408	-1.3139384	0.85966264	0.30514172
4	0.012	-1.4604627	0.036412229	-0.049203016	-0.86235144	0.091155179	0.080010323	-1.6092966	0.082637095	-0.071668581	-1.0130043	0.071293871	0.10815343	-1.5781372	0.098148755	0.020329778	-1.0050557	0.11086784	0.01861037	NaN	NaN	NaN	-1.063753	0.032259361	0.053446027	-1.4670234	0.4756971	-0.13495589	-1.0960949	0.52407182	0.15437061	-1.4619424	0.4757557	-0.008838308	-1.0919216	0.50687239	0.028324557	-1.3378578	0.87702067	-0.18063491	-1.3047955	0.87285463	0.18966215	-1.2294608	0.94692662	-0.12783504	-1.2222962	0.95412106	0.11228702	-1.3885717	1.0163763	0.00065983185	-1.1759217	1.397413	-0.15990895	-1.2127905	1.4150139	0.16415084	-1.2524765	1.4595785	-0.0016309534	-1.3245358	1.0598841	-0.2510597	-1.4006212	1.1091636	0.25535278	-1.124554	0.87491606	-0.23455669	-1.307401	0.8578574	0.30537658
5	0.016	-1.4604571	0.036341153	-0.049249324	-0.84426588	0.094997561	0.080317247	-1.6091105	0.083480683	-0.071266862	-0.99423182	0.071863519	0.10846781	-1.5773775	0.098735311	0.020563406	-0.98746312	0.1113904	0.018867182	NaN	NaN	NaN	-1.0442144	0.031365389	0.054218571	-1.4642008	0.47572022	-0.13484681	-1.08883	0.52208133	0.15450678	-1.4587301	0.47562343	-0.0087124072	-1.0840261	0.50501771	0.0281139	-1.3317496	0.87561524	-0.18058048	-1.2978927	0.87060682	0.1896818	-1.2229103	0.94509584	-0.1279784	-1.215148	0.95224552	0.11221715	-1.3819465	1.014183	0.00048615333	-1.1697648	1.3957618	-0.1597531	-1.2068465	1.4132022	0.16433603	-1.2464777	1.4578412	-0.0013681737	-1.3177995	1.0579042	-0.25135561	-1.3943649	1.1070608	0.25534424	-1.1165934	0.87423073	-0.23421472	-1.3008041	0.85600562	0.30563035
6	0.02	-1.4604342	0.036275082	-0.04928566	-0.82684059	0.099047024	0.080695041	-1.6088243	0.084291586	-0.070982809	-0.97546186	0.072980505	0.10888978	-1.5766624	0.099258939	0.020733866	-0.97040846	0.1120711	0.019110621	NaN	NaN	NaN	-1.0253088	0.030666998	0.054887969	-1.4610596	0.47550859	-0.13477039	-1.0813439	0.52013891	0.15452377	-1.4551298	0.47532507	-0.008613969	-1.0762519	0.50312741	0.027837478	-1.3256687	0.87415516	-0.18050002	-1.2909092	0.86829011	0.18972051	-1.2163824	0.94324292	-0.12810438	-1.2079632	0.95035957	0.11216327	-1.3751542	1.011968	0.00058257786	-1.1635954	1.3940755	-0.15959781	-1.200851	1.4113523	0.16453215	-1.2403948	1.4560712	-0.0011408516	-1.3110171	1.0558684	-0.25158585	-1.3880482	1.1049015	0.25538089	-1.1086781	0.87348265	-0.23387925	-1.2941392	0.85410867	0.3059076
7	0.024	-1.4603944	0.036215973	-0.049311038	-0.81007684	0.10316949	0.081116642	-1.6084066	0.085057122	-0.070824464	-0.95689054	0.074476943	0.10938055	-1.5759765	0.099753873	0.020847793	-0.95385632	0.11289051	0.019331316	NaN	NaN	NaN	-1.0070757	0.030146798	0.055444573	-1.4575516	0.47508022	-0.13471332	-1.0736485	0.51825636	0.1544934	-1.451166	0.47487672	-0.008555705	-1.0685213	0.50123064	0.027503472	-1.3196208	0.87263261	-0.18038248	-1.2838268	0.86592511	0.18976716	-1.2098878	0.94137638	-0.12823381	-1.2007288	0.9484676	0.11212181	-1.3680933	1.0097675	0.0012424455	-1.1574074	1.3923629	-0.15944005	-1.1948107	1.4094734	0.16474097	-1.2342619	1.4542876	-0.00092070557	-1.3041766	1.0537515	-0.25175171	-1.381675	1.1026971	0.25546087	-1.1007969	0.87269903	-0.23353187	-1.2874066	0.85218118	0.3062126
8	0.028	-1.4603395	0.036163842	-0.049325693	-0.79397976	0.10723832	0.081540148	-1.6078599	0.085797934	-0.070784956	-0.93907792	0.075956908	0.10982656	-1.5752989	0.10025645	0.020910992	-0.93783954	0.11380639	0.01952031	NaN	NaN	NaN	-0.9895493	0.029780502	0.055887889	-1.4536702	0.47446533	-0.13465838	-1.0657011	0.5164726	0.15448616	-1.4469057	0.4742963	-0.0085300004	-1.0607596	0.4993633	0.027144149	-1.3136034	0.87105188	-0.180239	-1.2766278	0.86352672	0.18981673	-1.2034401	0.9395065	-0.12837511	-1.1934488	0.94658303	0.11208545	-1.3607789	1.00761	0.0025805006	-1.1512019	1.3906362	-0.15926627	-1.1887437	1.4075743	0.16496409	-1.2280921	1.4525072	-0.00069095685	-1.2973131	1.0515479	-0.25191237	-1.3752587	1.1004594	0.25556248	-1.0929419	0.87189463	-0.23316489	-1.2806238	0.85022815	0.30654064
9	0.032	-1.4602721	0.036117242	-0.0493331	-0.77856518	0.11113622	0.081929315	-1.6072723	0.08654772	-0.070829935	-0.92242473	0.0771351	0.11011913	-1.5746273	0.1007865	0.020919649	-0.92251498	0.11473123	0.019658555	NaN	NaN	NaN	-0.97277954	0.029538516	0.056181535	-1.4494333	0.47372016	-0.1345665	-1.0575311	0.51481191	0.15451836	-1.4424502	0.47359991	-0.0085071019	-1.0529428	0.49755382	0.026798957	-1.3076053	0.86942796	-0.1800667	-1.2693021	0.86110428	0.18986895	-1.1970492	0.93764773	-0.12853315	-1.1861649	0.94471806	0.11205321	-1.353385	1.0054884	0.00427762	-1.1449814	1.3889069	-0.15907302	-1.1826619	1.4056602	0.16520155	-1.2218787	1.4507383	-0.00044874717	-1.2904894	1.0493118	-0.25213769	-1.3688087	1.0982	0.25566723	-1.0851215	0.87106793	-0.23278263	-1.273805	0.84824446	0.30688543
10	0.036	-1.460195	0.036074722	-0.049340941	-0.76386159	0.11474736	0.082278282	-1.6067725	0.087335908	-0.07091348	-0.90690401	0.078002436	0.11022568	-1.5739789	0.10135008	0.020861023	-0.90802606	0.11558042	0.019721523	NaN	NaN	NaN	-0.95677956	0.02941256	0.056290959	-1.4448218	0.472903	-0.13444088	-1.0491789	0.51328298	0.15457239	-1.4378293	0.47281036	-0.0084648075	-1.0450682	0.4958248	0.026483736	-1.3016032	0.86777889	-0.17985202	-1.2618431	0.8586749	0.18992508	-1.1907179	0.93581802	-0.12871763	-1.1789095	0.94287339	0.11201792	-1.3461462	1.0033617	0.005750969	-1.1387471	1.387185	-0.15887356	-1.1765677	1.4037403	0.16545732	-1.215608	1.4489805	-0.00019828595	-1.2837272	1.0471255	-0.25241552	-1.3623227	1.0959302	0.25577349	-1.0773482	0.87021409	-0.23239307	-1.2669398	0.84623478	0.3072468
11	0.04	-1.4601094	0.036035959	-0.049359308	-0.74989529	0.11797133	0.082577425	-1.6063483	0.088184635	-0.071046005	-0.8923219	0.078662638	0.11018702	-1.5733668	0.10195724	0.020723202	-0.89432804	0.11633214	0.019702599	NaN	NaN	NaN	-0.94147147	0.029431874	0.056211896	-1.4397824	0.47203516	-0.13435615	-1.0406882	0.51188786	0.15461665	-1.4329892	0.47195053	-0.008417225	-1.0371338	0.49419809	0.026193461	-1.2955648	0.86612232	-0.17960022	-1.2542484	0.85626619	0.18998834	-1.1844196	0.93403387	-0.12893739	-1.1716641	0.94104582	0.11196641	-1.3391669	1.0011987	0.0066828935	-1.1324972	1.3854808	-0.15867843	-1.170451	1.4018246	0.16573218	-1.2092812	1.4472335	5.8504739e-05	-1.2769887	1.045027	-0.25265241	-1.3557898	1.0936581	0.25589083	-1.0696303	0.86932958	-0.23200249	-1.2600161	0.84421707	0.30762306
12	0.044	-1.4600148	0.036001994	-0.049394751	-0.73666823	0.12073674	0.082763243	-1.6058052	0.08911138	-0.071306487	-0.8785732	0.079175388	0.11008079	-1.5727722	0.10263269	0.020501297	-0.88127999	0.11699138	0.019609674	NaN	NaN	NaN	-0.92675369	0.029619298	0.055959861	-1.434355	0.4711017	-0.13437656	-1.0321065	0.5106118	0.15463457	-1.4279139	0.47102593	-0.0084021455	-1.0291397	0.49269552	0.025924058	-1.2894568	0.86447636	-0.17933417	-1.2465235	0.8539026	0.19006423	-1.1780846	0.93230784	-0.12919626	-1.1643713	0.93923562	0.11189905	-1.3323726	0.99900356	0.0072034824	-1.12623	1.383804	-0.15847979	-1.1642894	1.3999195	0.16602165	-1.2029196	1.4455039	0.00032637897	-1.2702309	1.0430021	-0.25277051	-1.3491937	1.0913887	0.25603101	-1.0619739	0.8684146	-0.23161003	-1.2530374	0.84220909	0.30800961
13	0.048	-1.4599117	0.035974469	-0.04944673	-0.72416558	0.12298581	0.082776226	-1.6050069	0.090132151	-0.071742806	-0.86565235	0.079543364	0.1099665	-1.5721493	0.10340568	0.020195267	-0.86883333	0.11752462	0.019446354	NaN	NaN	NaN	-0.91267365	0.029897484	0.05557484	-1.4286907	0.470097	-0.13447896	-1.02345	0.50943232	0.15465049	-1.4226305	0.47003043	-0.0084528919	-1.0210845	0.49133731	0.025680152	-1.2832495	0.86285655	-0.17906228	-1.2386803	0.85159612	0.19016012	-1.1716376	0.93064611	-0.12949442	-1.1569805	0.9374469	0.11182844	-1.3256302	0.99680315	0.0075977971	-1.1199508	1.3821628	-0.1582631	-1.1580623	1.3980307	0.16632489	-1.196545	1.4438016	0.00061235785	-1.2634462	1.0410289	-0.25276324	-1.3425196	1.0891267	0.25620167	-1.0543825	0.86747892	-0.23121033	-1.2459944	0.84022148	0.30840706
